<svg width="18" height="11" viewBox="0 0 18 11" fill="none" xmlns="http://www.w3.org/2000/svg">
<path d="M8.90528 7.75163L15.5053 1.15163C15.7567 0.908749 16.0935 0.774356 16.4431 0.777394C16.7927 0.780432 17.1272 0.920657 17.3744 1.16787C17.6216 1.41508 17.7618 1.7495 17.7648 2.09909C17.7679 2.44869 17.6335 2.78549 17.3906 3.03696L9.84794 10.5796C9.59791 10.8296 9.25883 10.97 8.90528 10.97C8.55172 10.97 8.21265 10.8296 7.96261 10.5796L0.419943 3.03696C0.177065 2.78549 0.042673 2.44869 0.0457115 2.09909C0.048748 1.7495 0.188972 1.41508 0.436184 1.16787C0.683393 0.920656 1.01781 0.780431 1.36741 0.777393C1.717 0.774356 2.05381 0.908748 2.30528 1.15163L8.90528 7.75163Z" fill="#054BB5"/>
</svg>
