<svg width="14" height="10" viewBox="0 0 14 10" fill="none" xmlns="http://www.w3.org/2000/svg">
<path d="M5.57987 9.72941C5.44951 9.72967 5.32039 9.70402 5.19991 9.65391C5.07942 9.6038 4.96995 9.53022 4.87778 9.43741L0.665236 5.19441C0.570326 5.10223 0.494597 4.99194 0.442468 4.86997C0.390339 4.748 0.362854 4.6168 0.361616 4.48403C0.360378 4.35125 0.385412 4.21955 0.435257 4.09662C0.485103 3.97369 0.558761 3.86199 0.651935 3.76803C0.745109 3.67407 0.855932 3.59974 0.977938 3.54937C1.09994 3.499 1.23069 3.47361 1.36255 3.47467C1.4944 3.47573 1.62473 3.50322 1.74592 3.55554C1.86712 3.60786 1.97675 3.68396 2.06842 3.77941L5.57887 7.31441L11.8997 0.951406C12.0859 0.763765 12.3385 0.658297 12.6019 0.658203C12.8653 0.658109 13.118 0.763398 13.3043 0.950906C13.4907 1.13841 13.5954 1.39278 13.5955 1.65805C13.5956 1.92332 13.4911 2.17777 13.3048 2.36541L6.28196 9.43741C6.18978 9.53022 6.08031 9.6038 5.95983 9.65391C5.83935 9.70402 5.71022 9.72967 5.57987 9.72941Z" fill="#27AE60"/>
</svg>
