<svg width="14" height="14" viewBox="0 0 14 14" fill="none" xmlns="http://www.w3.org/2000/svg">
<path d="M8.79454 7.00128L13.2793 2.51522C13.4005 2.39819 13.4972 2.25819 13.5636 2.10341C13.6301 1.94862 13.6651 1.78215 13.6666 1.61369C13.6681 1.44524 13.636 1.27818 13.5722 1.12226C13.5084 0.966344 13.4142 0.824693 13.2951 0.705573C13.1759 0.586453 13.0343 0.492249 12.8784 0.428459C12.7225 0.364668 12.5554 0.332568 12.3869 0.334032C12.2185 0.335496 12.052 0.370494 11.8972 0.436985C11.7424 0.503475 11.6024 0.600126 11.4854 0.721298L6.99935 5.2061L2.51455 0.721298C2.39752 0.600126 2.25752 0.503475 2.10274 0.436985C1.94795 0.370494 1.78148 0.335496 1.61302 0.334032C1.44457 0.332568 1.27751 0.364668 1.12159 0.428459C0.965673 0.492249 0.824022 0.586453 0.704902 0.705573C0.585782 0.824693 0.491578 0.966344 0.427787 1.12226C0.363997 1.27818 0.331897 1.44524 0.333361 1.61369C0.334825 1.78215 0.369823 1.94862 0.436314 2.10341C0.502804 2.25819 0.599455 2.39819 0.720627 2.51522L5.20543 7.00002L0.720627 11.4861C0.599455 11.6031 0.502804 11.7431 0.436314 11.8979C0.369823 12.0527 0.334825 12.2192 0.333361 12.3876C0.331897 12.5561 0.363997 12.7231 0.427787 12.879C0.491578 13.035 0.585782 13.1766 0.704902 13.2957C0.824022 13.4148 0.965673 13.5091 1.12159 13.5728C1.27751 13.6366 1.44457 13.6687 1.61302 13.6673C1.78148 13.6658 1.94795 13.6308 2.10274 13.5643C2.25752 13.4978 2.39752 13.4012 2.51455 13.28L6.99935 8.7952L11.4854 13.28C11.6024 13.4012 11.7424 13.4978 11.8972 13.5643C12.052 13.6308 12.2185 13.6658 12.3869 13.6673C12.5554 13.6687 12.7225 13.6366 12.8784 13.5728C13.0343 13.5091 13.1759 13.4148 13.2951 13.2957C13.4142 13.1766 13.5084 13.035 13.5722 12.879C13.636 12.7231 13.6681 12.5561 13.6666 12.3876C13.6651 12.2192 13.6301 12.0527 13.5636 11.8979C13.4972 11.7431 13.4005 11.6031 13.2793 11.4861L8.79454 7.00002V7.00128Z" fill="#777777"/>
</svg>
