<svg width="14" height="14" viewBox="0 0 14 14" fill="none" xmlns="http://www.w3.org/2000/svg">
<path d="M8.79472 7.0008L13.2795 2.51473C13.4007 2.3977 13.4973 2.25771 13.5638 2.10292C13.6303 1.94814 13.6653 1.78166 13.6668 1.6132C13.6683 1.44475 13.6362 1.27769 13.5724 1.12177C13.5086 0.965856 13.4144 0.824205 13.2952 0.705085C13.1761 0.585965 13.0345 0.491761 12.8786 0.42797C12.7226 0.36418 12.5556 0.33208 12.3871 0.333544C12.2187 0.335008 12.0522 0.370006 11.8974 0.436497C11.7426 0.502987 11.6026 0.599638 11.4856 0.72081L6.99953 5.20561L2.51473 0.72081C2.3977 0.599638 2.25771 0.502987 2.10292 0.436497C1.94814 0.370006 1.78166 0.335008 1.6132 0.333544C1.44475 0.33208 1.27769 0.36418 1.12177 0.42797C0.965856 0.491761 0.824205 0.585965 0.705085 0.705085C0.585965 0.824205 0.491761 0.965856 0.42797 1.12177C0.36418 1.27769 0.33208 1.44475 0.333544 1.6132C0.335008 1.78166 0.370006 1.94814 0.436497 2.10292C0.502987 2.25771 0.599638 2.3977 0.72081 2.51473L5.20561 6.99953L0.72081 11.4856C0.599638 11.6026 0.502987 11.7426 0.436497 11.8974C0.370006 12.0522 0.335008 12.2187 0.333544 12.3871C0.33208 12.5556 0.36418 12.7226 0.42797 12.8786C0.491761 13.0345 0.585965 13.1761 0.705085 13.2952C0.824205 13.4144 0.965856 13.5086 1.12177 13.5724C1.27769 13.6361 1.44475 13.6682 1.6132 13.6668C1.78166 13.6653 1.94814 13.6303 2.10292 13.5638C2.25771 13.4973 2.3977 13.4007 2.51473 13.2795L6.99953 8.79472L11.4856 13.2795C11.6026 13.4007 11.7426 13.4973 11.8974 13.5638C12.0522 13.6303 12.2187 13.6653 12.3871 13.6668C12.5556 13.6682 12.7226 13.6361 12.8786 13.5724C13.0345 13.5086 13.1761 13.4144 13.2952 13.2952C13.4144 13.1761 13.5086 13.0345 13.5724 12.8786C13.6362 12.7226 13.6683 12.5556 13.6668 12.3871C13.6653 12.2187 13.6303 12.0522 13.5638 11.8974C13.4973 11.7426 13.4007 11.6026 13.2795 11.4856L8.79472 6.99953V7.0008Z" fill="#054BB5"/>
</svg>
