<svg width="8" height="12" viewBox="0 0 8 12" fill="none" xmlns="http://www.w3.org/2000/svg">
<path d="M2.54478 0.516175C2.98019 0.924175 7.23436 5.21118 7.23436 5.21118C7.34462 5.31331 7.43232 5.43572 7.49222 5.57111C7.55212 5.7065 7.58299 5.85208 7.58299 5.99918C7.58299 6.14627 7.55212 6.29185 7.49222 6.42724C7.43232 6.56263 7.34462 6.68504 7.23436 6.78718C7.23436 6.78718 2.98019 11.0762 2.54478 11.4822C2.10936 11.8902 1.32602 11.9182 0.862483 11.4822C0.397899 11.0482 0.361441 10.4412 0.862483 9.90818L4.76561 6.00018L0.862483 2.09218C0.361441 1.55917 0.397899 0.951175 0.862483 0.516175C1.32602 0.0801746 2.10936 0.107175 2.54478 0.516175Z" fill="black" fill-opacity="0.3"/>
</svg>
