<svg width="9" height="14" viewBox="0 0 9 14" fill="none" xmlns="http://www.w3.org/2000/svg">
<path d="M2.99544 0.41941C3.49704 0.90901 8.39784 6.05341 8.39784 6.05341C8.52486 6.17597 8.62589 6.32287 8.69489 6.48533C8.76389 6.6478 8.79946 6.8225 8.79946 6.99901C8.79946 7.17552 8.76389 7.35022 8.69489 7.51269C8.62589 7.67515 8.52486 7.82205 8.39784 7.94461C8.39784 7.94461 3.49704 13.0914 2.99544 13.5786C2.49384 14.0682 1.59144 14.1018 1.05744 13.5786C0.522235 13.0578 0.480235 12.3294 1.05744 11.6898L5.55384 7.00021L1.05744 2.31061C0.480235 1.67101 0.522235 0.94141 1.05744 0.41941C1.59144 -0.103791 2.49384 -0.0713905 2.99544 0.41941Z" fill="#054BB5"/>
</svg>
