<svg width="18" height="11" viewBox="0 0 18 11" fill="none" xmlns="http://www.w3.org/2000/svg">
<path d="M9.09472 3.24837L2.49472 9.84837C2.24325 10.0913 1.90645 10.2256 1.55686 10.2226C1.20726 10.2196 0.872843 10.0793 0.625632 9.83213C0.378421 9.58492 0.238196 9.2505 0.235158 8.90091C0.23212 8.55131 0.366512 8.21451 0.60939 7.96304L8.15206 0.420373C8.40209 0.170411 8.74117 0.0299922 9.09472 0.0299922C9.44828 0.0299922 9.78735 0.170411 10.0374 0.420373L17.5801 7.96304C17.8229 8.21451 17.9573 8.55131 17.9543 8.90091C17.9513 9.2505 17.811 9.58492 17.5638 9.83213C17.3166 10.0793 16.9822 10.2196 16.6326 10.2226C16.283 10.2256 15.9462 10.0913 15.6947 9.84837L9.09472 3.24837Z" fill="#054BB5"/>
</svg>
